<?xml version="1.0" encoding="utf-8"?>
<!-- Generator: Adobe Illustrator 17.1.0, SVG Export Plug-In . SVG Version: 6.00 Build 0)  -->
<!DOCTYPE svg PUBLIC "-//W3C//DTD SVG 1.1//EN" "http://www.w3.org/Graphics/SVG/1.1/DTD/svg11.dtd">
<svg version="1.1" id="Capa_1" xmlns="http://www.w3.org/2000/svg" xmlns:xlink="http://www.w3.org/1999/xlink" x="0px" y="0px"
	 viewBox="0 0 535.6 406.1" style="enable-background:new 0 0 535.6 406.1;" xml:space="preserve">
<style type="text/css">
	.st0{fill:#009696;}
	.st1{fill:#00C8C8;}
	.st2{fill:#FFFFFF;}
	.st3{fill:#006FFF;}
	.st4{fill:#FFFF29;}
	.st5{fill:#D44A64;}
	.st6{fill:#005FFF;}
	.st7{opacity:0.7;}
	.st8{fill:#FFD429;}
	.st9{opacity:0.67;}
	.st10{fill:#BA4A64;}
	.st11{fill:#DCDCDC;}
</style>
<g>
	<g>
		
			<image style="overflow:visible;opacity:0.2;" width="473" height="368" xlink:href="98C0FD88D30FF94A.png"  transform="matrix(1 0 0 1 31.3127 28.539)">
		</image>
		<g>
			<g>
				<g>
					<g>
						<path class="st0" d="M103.6,386.2c-2.7,0-5.3-0.7-7.8-2c-4.1-2.2-6.7-6.3-7.3-11.1c-0.3-1.8-0.5-4.7-0.9-9.1
							c-0.3-4.2-0.7-9.1-1.2-14.6c-0.4-5.5-0.9-11.4-1.5-17.7c-0.5-6.2-1-12.3-1.6-18.1c-0.5-5.8-1.1-11.2-1.6-15.9
							c-0.5-4.7-1-8.3-1.4-10.8c-0.8-4.9,0.8-9.6,4.3-12.9c2.5-2.3,5.6-3.9,9.1-4.4c0.9-0.1,1.9-0.2,2.8-0.2c2.5,0,4.9,0.5,7.1,1.5
							c1.4,0.6,2.6,1.4,3.7,2.4c6-3.1,12.5-5,19.4-5.6c1.5-0.1,3.1-0.2,4.5-0.2c5.3,0,10.2,0.9,14.4,2.6c5.5,2.3,10.1,5.7,13.6,10.2
							c3.3,4.2,5.7,9.1,7.1,14.7c1.3,5,1.9,10.4,1.8,16c-0.1,5.7-1.1,11-2.9,16c-1.9,4.9-4.5,9.3-7.7,13.1c-3.3,3.8-7.2,7-11.7,9.4
							c-4.4,2.4-9.1,3.9-14.1,4.7c-2.1,0.3-4.3,0.5-6.5,0.5c0,0,0,0,0,0c-2.7,0-5.4-0.2-8.1-0.7c0.3,2.3,0.6,4.6,0.9,6.9
							c0.3,2.6,0.7,5.5,1.1,8.7l0,0.2c0.5,4.6-1.2,9-4.5,12.1c-2.6,2.3-5.7,3.8-9.1,4.1C104.8,386.2,104.2,386.2,103.6,386.2z
							 M115,321.4c0.9,0.6,1.9,1.2,2.8,1.6c2,0.9,4,1.3,5.9,1.4c0.3,0,0.5,0,0.8,0c1.6,0,3.2-0.2,4.7-0.7c1.6-0.5,3-1.3,4.3-2.4
							c1.3-1.1,2.3-2.5,3.2-4.2c0.8-1.6,1.3-3.6,1.3-5.8c0.1-2.1-0.1-4.3-0.4-6.5c-0.3-1.7-0.8-3.2-1.5-4.5c-0.5-1-1.2-1.8-2.2-2.4
							c-0.5-0.4-1.5-0.6-2.8-0.7c-0.2,0-0.4,0-0.6,0c-1.3,0-2.7,0.2-4.4,0.6c-2.1,0.5-4.3,1.4-6.3,2.5c-1.9,1-3.6,2.3-5.1,3.7
							c-0.6,0.6-1,1.1-1.3,1.7c0.1,2.8,0.3,5.7,0.6,8.5C114.3,316.4,114.7,318.9,115,321.4z"/>
					</g>
					<g>
						<path class="st0" d="M197.7,356.3c-5.5,0-10.8-1-15.6-2.9c-4.9-1.9-9.3-4.6-13.2-8.1c-3.8-3.4-6.9-7.2-9.5-11.5
							c-2.5-4.3-4.4-8.9-5.5-13.8c-1.2-5.1-1.4-10.2-0.7-15.3c0.6-4.8,1.9-9.6,4-14.2c2.2-4.9,5.2-9.3,9-13.1
							c3.9-3.9,8.7-6.9,14.2-9.2c5.2-2.1,11.1-3.1,17.7-3.1c0.5,0,1,0,1.5,0c6.1,0.2,11.8,1.5,17,3.8c5.3,2.4,10,5.7,13.9,10
							c3.9,4.2,6.8,9.3,8.8,15c2,5.7,2.7,11.9,2.3,18.5c-0.2,4-1,8.1-2.2,12c-1.2,4-2.9,7.8-4.9,11.2c-2.1,3.6-4.8,6.9-7.9,9.7
							c-3.3,3-7,5.4-11.2,7.2c-6,2.5-11.9,3.8-17.6,3.8L197.7,356.3z M198.3,295.7c-0.7,0-1.8,0.1-3.6,0.3c-1.4,0.2-3,0.8-4.5,1.6
							c-1.3,0.7-2.6,2-3.9,3.7c-0.8,1.1-1.8,3.2-2.3,7.4c-0.3,2.8-0.1,5.3,0.6,7.8c0.6,2.2,1.6,4,3,5.5c1.2,1.3,2.8,2.3,4.8,3
							c1.3,0.4,2.7,0.6,4.3,0.6c1,0,2.1-0.1,3.2-0.3c1.8-0.3,3.3-0.8,4.6-1.5c1.4-0.8,2.5-1.7,3.5-2.8c1-1.1,1.7-2.4,2.3-3.8
							c0.7-1.7,1.1-3.5,1.4-5.4c0.2-2.3,0.1-4.4-0.4-6.5c-0.4-1.8-1.1-3.3-2.1-4.7c-1-1.3-2.2-2.4-3.8-3.3c-1.6-0.9-3.8-1.5-6.3-1.7
							C198.7,295.7,198.5,295.7,198.3,295.7z"/>
					</g>
					<g>
						<path class="st0" d="M246.7,357.2c-2.6,0-5.2-0.6-7.6-1.8c-4.3-2.2-7.1-6.4-7.6-11.4l0-0.2c-1.4-21.4-2.9-43.2-4.4-64.8
							c-0.4-5.1,1.7-9.7,5.7-12.5c2.5-1.7,5.5-2.7,8.6-2.9c0.3,0,0.6,0,0.9,0c2.7,0,5.3,0.6,7.6,1.8c1.9,1,3.5,2.3,4.7,3.8
							c0.2-0.1,0.4-0.2,0.6-0.3c5.4-2.8,11.1-4.2,16.8-4.2c0.4,0,0.9,0,1.3,0c4.1,0,8.2,0.9,12.2,2.5c3.9,1.6,7.5,3.9,10.6,6.9
							c3.1,2.9,5.7,6.2,7.7,10c2.2,4,3.5,8.3,4.1,13c0.7,5.2-0.9,9.8-4.4,13.1c-2.6,2.4-5.8,3.9-9.2,4.4c-0.8,0.1-1.6,0.2-2.3,0.2
							c-2.7,0-5.2-0.6-7.6-1.9c-4.1-2.1-6.9-5.9-7.6-10.5l0-0.2c-0.2-1.5-0.6-2.7-1.1-3.7c-0.5-1-1.1-1.8-1.7-2.3
							c-0.6-0.5-1.1-0.8-1.7-1c-0.3-0.1-0.5-0.1-0.5-0.1l-0.2,0c-0.7,0.1-1.5,0.3-2.4,0.8c-1.5,0.8-3,1.7-4.4,2.8
							c-1.5,1.2-2.9,2.5-4.2,3.8c-0.4,0.4-0.8,0.9-1.2,1.3c0.2,2.9,0.4,5.8,0.6,8.6c0.3,4.2,0.6,8,0.9,11.6c0.3,3.6,0.5,6.8,0.8,9.6
							c0.2,2.7,0.5,4.8,0.7,6.4l0,0.2c0.7,5-1,9.7-4.7,12.8c-2.5,2.2-5.6,3.6-8.9,4C248.1,357.2,247.4,357.2,246.7,357.2z"/>
					</g>
					<g>
						<path class="st0" d="M431.7,362.4c-0.2,0-0.5,0-0.7,0c-3.6-0.2-7-1.5-9.7-3.8c-3.7-3.1-5.4-7.8-4.8-12.9
							c0.8-6.6,1.3-13.2,1.6-19.6c0.3-5.9,0-11.2-0.9-15.6c-0.7-3.6-1.8-6.3-3.3-8.2c-0.2-0.3-0.8-1-3.2-1.1c-0.9,0-1.8,0.2-2.8,0.6
							c-1.2,0.5-2.3,1.1-3.3,1.9c-1,0.8-1.8,1.7-2.6,2.8c-0.6,0.9-0.9,1.7-1.1,2.5c-1.1,5.7-1.8,11.2-2.1,16.6
							c-0.3,5.5-0.4,11.3-0.4,17.1v0.1c0,5-2.4,9.4-6.4,12.1c-2.7,1.8-5.9,2.7-9.1,2.7l-0.4,0c-3.5-0.1-6.9-1.3-9.7-3.5
							c-3.7-2.9-5.7-7.4-5.4-12.4l0-0.4c0.4-4.2,0.7-9.6,0.9-16c0.2-6-0.1-12.7-1-19.8c-0.2-1.3-0.5-2.3-0.9-3.2
							c-0.3-0.7-0.7-1.2-1.1-1.5c-0.4-0.4-0.8-0.6-1.3-0.8c-0.3-0.1-0.7-0.2-1-0.2c-0.1,0-0.2,0-0.3,0l-0.1,0
							c-0.7,0-1.5,0.3-2.4,0.7c-1.5,0.7-3,1.7-4.4,2.7c-1.5,1.2-2.9,2.4-4.2,3.8c-0.5,0.5-1,1-1.4,1.5c-0.1,5.6-0.1,11-0.1,16.2
							c0,5.8,0.3,10.8,0.9,14.9l0,0.3c0.6,4.9-1.1,9.5-4.6,12.6c-2.5,2.2-5.7,3.6-9.1,4c-0.7,0.1-1.3,0.1-2,0.1
							c-2.7,0-5.3-0.6-7.7-1.9c-4.4-2.3-7.2-6.5-7.6-11.6l0-0.2l0-0.2c-0.6-19.9-1.2-40.1-1.8-59.9c-0.3-5,1.9-9.6,5.9-12.2
							c2.5-1.7,5.5-2.6,8.6-2.7c0.2,0,0.4,0,0.6,0c2.8,0,5.4,0.6,7.9,1.9c1.9,1,3.5,2.3,4.7,3.9c0.2-0.1,0.4-0.2,0.6-0.3
							c5.3-2.6,10.8-4,16.3-4c0.6,0,1.2,0,1.9,0c8,0.2,14.9,2.6,20.5,7.2c0.7,0.6,1.4,1.2,2.1,1.9c1.9-1.4,3.9-2.7,6.1-3.7
							c3.4-1.6,6.9-2.7,10.4-3.2c2.4-0.3,4.7-0.5,6.8-0.5c0.8,0,1.7,0,2.5,0.1l0.3,0c8.7,0.8,15.9,3.7,21.3,8.8
							c5,4.7,8.6,10.9,10.8,18.5c1.9,6.7,2.9,14.5,2.9,23.3c0,8-0.3,17-1.1,26.6c-0.4,4.9-2.9,9.1-6.9,11.5
							C437.7,361.6,434.8,362.4,431.7,362.4C431.7,362.4,431.7,362.4,431.7,362.4z"/>
					</g>
					<g>
						<path class="st0" d="M451.7,288.6c-0.7,0-1.4-0.1-2.1-0.2c-3.3-0.5-6.3-1.9-8.7-4c-2.5-2.3-4.2-5.3-4.7-8.8
							c-0.8-4.7,1-9.4,4.9-12.8c3.3-2.9,6.5-5.9,9.8-8.8c4-3.7,8.1-4.4,10.9-4.4c0.3,0,0.5,0,0.8,0c4,0.2,7.5,1.8,10.2,4.5
							c2.5,2.6,4,5.9,4.3,9.6c0.3,4.3-1.3,8.5-4.6,11.8l-0.3,0.3l-0.3,0.3c-3.5,3-7,6-10.5,9l-0.2,0.2
							C458.3,287.4,455.1,288.6,451.7,288.6L451.7,288.6z"/>
					</g>
					<g>
						<path class="st0" d="M451.6,364.1c-3.2,0-6.4-0.9-9.1-2.6c-4-2.6-6.4-6.9-6.6-11.8l0-0.4l0-0.4c0.9-21.7,1.9-43.4,2.8-65.1
							c0.2-5.3,3-9.7,7.6-11.9c2.2-1,4.5-1.5,6.9-1.5c0.8,0,1.6,0.1,2.4,0.2c2.8,0.4,5.3,1.3,7.6,2.8c4,2.6,6.3,6.6,6.3,11.1
							c0,1.8,0,4.3-0.2,7.6c-0.1,3.1-0.3,6.6-0.5,10.5c-0.2,3.9-0.4,8-0.6,12.3c-0.2,4.3-0.4,8.6-0.6,12.7c-0.2,4.1-0.3,8-0.3,11.7
							c0,3.7,0,6.8,0,9.4l0,0.1c0.1,5-2.1,9.4-6,12.2c-2.7,1.9-5.9,3-9.3,3.1C451.9,364.1,451.7,364.1,451.6,364.1z"/>
					</g>
					<g>
						<path class="st0" d="M109.4,272.5c-3.3,0-6.5-0.6-9.7-1.8c-6.8-2.7-11.4-8.5-12.6-15.9L87,254l0-0.2
							c-3.1-33-6.6-70.6-10.1-108.5c-2,1.4-4.5,2.5-7.7,2.7c-0.8,0.1-1.6,0.1-2.4,0.1c-4.3,0-8.5-1-12.3-3c-1.5-0.8-2.9-1.7-4.3-2.7
							c-2.6-2-4.8-4.5-6.4-7.4c-3.7-6.3-3.7-13.7,0-20.3l0.4-0.6l0.1-0.1C54,98.7,61.3,86.5,71.6,71.6c3.3-4.8,8.7-9.4,8.7-9.4
							c3.9-2.3,8.3-3.6,13-3.8c0.5,0,1,0,1.5,0c4.1,0,8,0.8,11.7,2.3c6.6,2.8,10.9,8.2,11.7,14.8c0.7,5.5,1.3,11.2,1.8,17.4
							c0.7,8.6,1.5,17.8,2.3,29.1c0.8,10.3,1.7,21.5,2.8,35.1l0.5,6.3c0.8,10,1.7,20,2.5,30c0.9,10.8,1.8,21.3,3,31.6
							c0.9,8.1,1.8,15.1,2.8,21.4c1.2,7.1-1.2,14-6.3,18.8c-3.8,3.6-8.3,5.9-13.3,6.8C112.7,272.3,111,272.5,109.4,272.5z"/>
					</g>
					<g>
						<path class="st0" d="M303.8,240c-9-0.1-18.5-0.3-29.1-0.7c-3.7-0.1-7.3-0.3-11-0.4l-0.7,0c-5.7-0.2-11.3-0.4-17-0.6
							c-8.6-0.3-17.4-0.4-26.2-0.5l-0.9,0c-5.1,0-10.5,0.2-15.7,0.5c-1.6,0.1-3.2,0.1-4.7,0.2c-0.3,0-0.5,0-0.8,0
							c-0.3,0-0.6,0-0.9,0c-2.9-0.1-5.9-1-8.8-2.5c-3.4-1.8-6.3-4.6-8.3-7.9c-2.3-3.8-3.1-8.4-2.4-13.2c0.6-4.3,2.6-8.3,6.4-12.7
							c4.4-5.1,9-10.9,13.4-16.5c4.1-5.2,8.4-10.6,12.7-15.8l5.3-6.2c4.7-5.5,9.5-11.2,14.2-16.9c4.7-5.6,9.3-11.2,13.8-16.8
							c3.3-4.2,6.3-8.4,8.9-12.4c1.3-2,2.9-4.8,4.7-8.1c1.9-3.4,3.7-7.1,5.5-11.1c1.6-3.6,2.9-7.3,3.9-11c0.7-2.7,0.9-5.2,0.7-7.1
							c-0.1-0.4-0.1-0.6-0.2-0.7c-0.4-0.2-1.7-0.5-4.3-0.6l-0.2,0c-0.7,0-2.5,0.1-5.7,0.6c-1.1,0.2-3.6,0.9-7.9,3.4
							c-3.7,2.2-7.9,5.7-12.3,10.4c-6,6.4-11,14.3-15.5,21.9c-3.3,5.6-8.5,9.1-14.6,10c-1.2,0.2-2.4,0.2-3.6,0.2
							c-3.2,0-6.3-0.6-9.2-1.8c-4.4-1.8-8.1-4.9-10.6-9c-3.3-5.5-3.7-12.1-0.9-18c4.6-9.7,10.2-18.7,16.4-26
							c6.7-7.9,12.9-13.9,19.5-18.7c7-5.1,14.6-9.1,22.5-11.7c7.2-2.4,14.1-3.6,20.7-3.6c1.3,0,2.6,0,3.9,0.1
							c8.7,0.7,19,2.1,29.1,7.5c9.5,5.2,16.3,14.1,18.7,24.5c2.2,9.8,1.2,20.7-3.3,33.3c-5.3,15-13.7,28.1-22.1,40
							c-9.7,13.9-20.2,27.5-31.4,40.4c-3.2,3.7-7.3,8.6-11.5,13.6c1.9,0,3.7,0.1,5.6,0.1c6.3,0.1,12.9,0.3,19.4,0.6
							c6.7,0.3,13.4,0.6,20,1.1c7.1,0.5,13.1,0.8,18.4,1.1c5.8,0.3,11,3.4,14.3,8.5c2.4,3.7,3.7,8,3.6,12.3c-0.1,5.1-2,9.7-5.5,13.5
							c-2.7,2.9-7.6,6.3-16,6.3C304.1,240,303.8,240,303.8,240z"/>
					</g>
					<g>
						<path class="st0" d="M421.2,267.2c-2.9,0-5.8-0.1-8.8-0.3c-3.4-0.3-6.9-0.6-10.5-1.2c-1.6-0.2-3.9-0.8-9.8-2.5
							c-4.9-1.5-10.4-3.8-16.3-7c-5.8-3.1-11.8-7.2-17.7-12.1c-6.5-5.4-11.9-12.3-16.3-20.5c-2.9-5.5-3.1-11.7-0.7-17.3
							c1.7-4,4.4-7.3,7.8-9.9c3.8-2.9,8.2-4.5,12.7-4.6c0.3,0,0.5,0,0.8,0c6,0,11.6,2.9,15.2,7.9c1.8,2.6,3.9,5.2,6.2,7.9
							c2.2,2.6,4.7,5.1,7.4,7.4c2.6,2.2,5.4,4.2,8.4,6c2.2,1.3,4.7,2.2,7.4,2.6c3.9,0.6,7.7,0.9,11.1,0.9c1.7,0,3.4-0.1,5-0.2
							c4.4-0.4,8.3-1.6,11.6-3.3c3.1-1.6,5.8-4,8-7.1c2.3-3.1,3.9-7.4,4.8-12.6c1-5.5,0.5-8.6,0-10.3c-0.7-2.2-1.6-3.8-2.8-4.9
							c-1.6-1.5-3.7-2.6-6.2-3.5c-3.3-1.1-6.8-1.8-10.4-2.1c-1.7-0.1-3.3-0.2-4.9-0.2c-2.2,0-4.4,0.1-6.6,0.4
							c-4.8,0.5-8.2,1-10.8,1.6c-1.9,0.4-3.7,0.6-5.5,0.6c-0.6,0-1.1,0-1.7-0.1c-5-0.4-9.4-2.5-12.6-6c-3.3-3.7-5.3-8.2-5.9-13.2
							c-0.5-4.3,0-8.5,1.5-12.5c2.4-6.6,7.4-11,13.7-12.1c3.3-0.6,7-1.6,11.1-3c4.1-1.4,8.2-3.2,12.3-5.3c4.1-2.1,8-4.5,11.8-7.1
							c3.5-2.4,6.5-5,8.9-7.6c3.9-4.2,4.5-6.7,4.6-7.6c0.2-2-0.3-2.6-0.7-3c-1.1-1.3-3.3-2.3-6.3-2.9c-1.1-0.2-2.3-0.3-3.5-0.3
							c-3,0-6.3,0.6-9.9,1.9c-4.9,1.7-9.9,4-14.8,7c-5.4,3.3-8.2,5.7-9.4,6.9c-3.5,3.6-8.2,5.5-13.1,5.5c-1.7,0-3.4-0.2-5.1-0.7
							c-4.3-1.2-8.1-3.6-11.2-7c-3.1-3.4-5.1-7.4-6-11.8c-1.3-6.6,0.7-12.9,5.5-17.5c5.2-5,10.9-9.6,17-13.7
							c6.7-4.5,13.4-7.8,20-9.8c7.4-2.2,16.3-4.5,26.7-4.5c0.4,0,0.7,0,1.1,0c9,0.1,17.3,1.8,24.6,5c7.5,3.2,13.8,7.8,18.8,13.7
							c5.1,6,8.5,12.9,10,20.5c1.5,7.4,1,15.3-1.4,23.4c-2.2,7.6-6.5,15.2-13.1,22.9c-1.1,1.4-2.6,2.8-4.2,4.4
							c0.3,0.2,0.6,0.4,0.9,0.6c7.2,5,12.9,11.3,16.8,18.6c3.7,6.9,6,14.4,6.7,22.3c0.7,7.5,0.2,14.7-1.2,21.4
							c-4.8,22-16.4,38.9-32.5,47.7C448.8,264.2,435.9,267.2,421.2,267.2C421.2,267.2,421.2,267.2,421.2,267.2z"/>
					</g>
					<g>
						<path class="st0" d="M150.4,181.1c-3.9,0-7.6-1.6-10.2-4.5c-2.3-2.6-3.9-5.8-4.4-9.4c-0.5-3.1-0.3-6.2,0.6-9.1
							c1.5-5,5-8.5,9.7-9.7c3.1-0.9,6.8-1.9,11-2.9l6-1.5c2.5-0.6,2.8-0.7,3.6-1c0.7-0.2,1.6-0.5,3.9-1.1c1.6-0.4,2.2-0.6,2.6-0.7
							l0.1,0c0.7-0.3,1.5-0.6,3.5-1.3l0.2-0.1l0.2-0.1c1.7-0.5,3.3-0.8,4.9-0.8c3.4,0,6.5,1.1,9.2,3.1c3,2.3,5.3,5.3,6.5,8.9
							c1.2,3.5,1.3,7.3,0.4,11c-1.4,5.2-5.2,9.1-10.4,10.7l-0.3,0.1l-32.9,7.9C153.3,180.9,151.8,181.1,150.4,181.1z"/>
					</g>
					<g>
						<path class="st0" d="M344.7,180.1c-1.4,0-2.8-0.2-4.3-0.6l-32.7-7.9l-0.3-0.1c-5.3-1.6-9.1-5.5-10.4-10.7
							c-1-3.7-0.8-7.4,0.4-11c1.2-3.5,3.5-6.6,6.5-8.9c2.7-2,5.9-3.1,9.2-3.1c1.6,0,3.3,0.3,4.9,0.8l0.2,0.1l0.2,0.1
							c2.2,0.8,3.1,1.2,3.8,1.5c0.4,0.1,1.1,0.3,2.2,0.6c2.3,0.6,3.2,0.9,3.9,1.1c0.8,0.2,1.1,0.3,3.6,1l6,1.5c4.2,1,7.9,2,11,2.9
							c4.7,1.2,8.2,4.8,9.7,9.8c0.9,2.9,1.1,6,0.6,9.1c-0.5,3.6-2.1,6.9-4.4,9.4C352.3,178.5,348.6,180.1,344.7,180.1
							C344.7,180.1,344.7,180.1,344.7,180.1z"/>
					</g>
				</g>
				<g>
					<g>
						<path class="st1" d="M103.6,382c-2,0-4-0.5-5.8-1.5c-2.9-1.6-4.7-4.4-5.1-7.9c-0.2-1.7-0.5-4.6-0.9-8.9
							c-0.3-4.2-0.7-9.1-1.2-14.6c-0.4-5.5-0.9-11.4-1.5-17.7c-0.5-6.1-1-12.3-1.6-18.2c-0.5-5.8-1.1-11.2-1.6-16
							c-0.5-4.7-1-8.4-1.4-11c-0.6-3.5,0.5-6.8,3.1-9.1c1.9-1.8,4.2-2.9,6.9-3.3c0.7-0.1,1.4-0.2,2.1-0.2c1.9,0,3.7,0.4,5.4,1.2
							c1.9,0.9,3.4,2.2,4.4,4c6.3-3.9,13.2-6.2,20.7-6.8c1.4-0.1,2.8-0.2,4.2-0.2c4.8,0,9.1,0.8,12.8,2.3c4.9,2,8.9,5,11.9,8.9
							c2.9,3.7,5,8.2,6.3,13.2c1.2,4.7,1.7,9.7,1.7,15c-0.1,5.2-1,10.1-2.7,14.5c-1.7,4.5-4,8.4-7,11.9c-3,3.4-6.5,6.3-10.5,8.4
							c-4,2.1-8.3,3.6-12.8,4.3c-1.9,0.3-3.9,0.4-5.9,0.4c0,0,0,0,0,0c-2.7,0-5.4-0.3-8.2-0.8c-1.6-0.3-3.1-0.7-4.7-1.2
							c0.2,1.8,0.3,3.6,0.5,5.3c0.3,2.5,0.6,5,0.9,7.6c0.3,2.6,0.7,5.5,1.1,8.6l0,0.1c0.3,3.3-0.8,6.4-3.2,8.5
							c-1.9,1.7-4.2,2.8-6.7,3.1C104.5,382,104,382,103.6,382z M111,323.6c1.6,1.4,3.4,2.4,5.2,3.2c2.5,1,4.9,1.6,7.3,1.7
							c0.3,0,0.7,0,1,0c2,0,4.1-0.3,6-0.9c2.2-0.7,4.1-1.8,5.7-3.2c1.7-1.5,3.1-3.3,4.2-5.5c1.1-2.1,1.7-4.7,1.8-7.5
							c0.1-2.4-0.1-4.8-0.5-7.3c-0.3-2.2-1-4.2-1.9-5.9c-0.8-1.5-1.9-2.8-3.4-3.8c-1.2-0.9-2.9-1.4-5.1-1.5c-0.3,0-0.6,0-0.9,0
							c-1.6,0-3.4,0.3-5.4,0.7c-2.5,0.6-4.9,1.6-7.3,2.8c-2.3,1.2-4.3,2.7-6,4.5c-1.2,1.2-2,2.5-2.5,3.9c0,3.3,0.3,6.6,0.7,9.8
							C110.3,317.5,110.6,320.6,111,323.6z"/>
					</g>
					<g>
						<path class="st1" d="M197.7,352.1c-5,0-9.8-0.9-14.1-2.6c-4.4-1.7-8.4-4.2-11.9-7.3c-3.4-3.1-6.3-6.6-8.6-10.5
							c-2.3-3.9-4-8.2-5-12.6c-1-4.6-1.2-9.2-0.6-13.8c0.6-4.4,1.8-8.8,3.6-13.1c1.9-4.4,4.7-8.4,8.2-11.8c3.5-3.5,7.8-6.2,12.8-8.2
							c4.7-1.9,10.1-2.8,16.1-2.8c0.5,0,0.9,0,1.4,0c5.5,0.2,10.7,1.3,15.4,3.4c4.8,2.1,9,5.2,12.5,9c3.5,3.8,6.1,8.4,7.9,13.5
							c1.8,5.1,2.5,10.8,2,16.9c-0.2,3.7-0.9,7.4-2,11c-1.1,3.6-2.6,7.1-4.5,10.3c-1.9,3.2-4.3,6.2-7.1,8.8c-2.9,2.7-6.3,4.8-10,6.4
							c-5.5,2.3-10.9,3.4-16,3.5L197.7,352.1z M198.3,291.5c-1.2,0-2.6,0.1-4.2,0.4c-1.9,0.3-3.9,1-6,2.1c-1.9,1-3.6,2.7-5.2,4.9
							c-1.5,2.1-2.6,5.3-3.1,9.3c-0.4,3.3-0.2,6.5,0.7,9.5c0.8,2.9,2.1,5.2,3.9,7.2c1.7,1.9,3.8,3.2,6.5,4.2
							c1.7,0.6,3.6,0.9,5.6,0.9c1.2,0,2.5-0.1,3.8-0.3c2.3-0.3,4.3-1,6-2c1.8-1,3.3-2.2,4.6-3.7c1.3-1.5,2.3-3.2,3.1-5
							c0.8-2,1.4-4.2,1.6-6.5c0.3-2.7,0.1-5.3-0.4-7.8c-0.5-2.4-1.4-4.4-2.8-6.3c-1.3-1.8-3-3.3-5.2-4.5c-2.2-1.2-4.8-1.9-7.9-2.2
							C199,291.5,198.6,291.5,198.3,291.5z"/>
					</g>
					<g>
						<path class="st1" d="M246.7,353c-2,0-3.9-0.5-5.7-1.4c-3-1.6-5-4.5-5.3-8.1l0-0.1c-1.4-21.5-2.9-43.3-4.5-64.8
							c-0.3-3.6,1.1-6.8,3.9-8.7c1.9-1.3,4-2,6.4-2.1c0.2,0,0.5,0,0.7,0c2,0,4,0.5,5.8,1.3c2.6,1.3,4.3,3.4,4.9,6
							c1.4-0.9,2.8-1.7,4.3-2.5c4.8-2.5,9.8-3.7,14.9-3.7c0.4,0,0.8,0,1.2,0c3.6,0,7.2,0.8,10.7,2.2c3.4,1.4,6.6,3.5,9.4,6.1
							c2.7,2.5,5.1,5.6,6.9,9c1.9,3.5,3.1,7.4,3.6,11.5c0.7,5.1-1.7,8.2-3.1,9.5c-2,1.8-4.3,3-6.9,3.3c-0.6,0.1-1.2,0.1-1.7,0.1
							c-2,0-3.9-0.5-5.7-1.4c-3-1.5-4.9-4.2-5.4-7.4l0-0.1c-0.3-2-0.8-3.7-1.6-5.2c-0.8-1.4-1.7-2.6-2.6-3.4c-0.9-0.8-1.9-1.4-3-1.8
							c-0.7-0.3-1.3-0.4-1.9-0.4c-0.1,0-0.3,0-0.4,0l-0.2,0c-1.3,0.1-2.6,0.5-4,1.2c-1.7,0.9-3.4,2-5,3.2c-1.7,1.3-3.2,2.7-4.6,4.3
							c-0.9,0.9-1.7,1.9-2.4,2.7c0.2,3.5,0.4,7,0.7,10.3c0.3,4.2,0.6,8,0.9,11.6c0.3,3.6,0.5,6.8,0.8,9.7c0.2,2.7,0.5,5,0.7,6.7
							l0,0.1c0.5,3.6-0.7,6.9-3.3,9.1c-1.9,1.7-4.2,2.7-6.7,3C247.8,353,247.2,353,246.7,353z"/>
					</g>
					<g>
						<path class="st1" d="M431.7,358.2c-0.2,0-0.4,0-0.5,0c-2.7-0.1-5.1-1.1-7.2-2.8c-2.6-2.2-3.8-5.5-3.4-9.2
							c0.8-6.7,1.3-13.5,1.6-20c0.3-6.2-0.1-11.8-0.9-16.6c-0.8-4.3-2.2-7.6-4.1-10.1c-0.9-1.1-2.5-2.6-6.5-2.7
							c-1.4,0-2.8,0.3-4.3,0.9c-1.6,0.6-3.1,1.5-4.4,2.5c-1.3,1.1-2.5,2.3-3.5,3.8c-0.9,1.3-1.4,2.7-1.7,4
							c-1.1,5.9-1.9,11.6-2.2,17.1c-0.3,5.6-0.4,11.5-0.4,17.4c0,3.7-1.6,6.8-4.5,8.7c-2.1,1.3-4.3,2-6.8,2l-0.3,0
							c-2.6-0.1-5.1-1-7.2-2.6c-2.6-2.1-4-5.2-3.8-8.9l0-0.2c0.4-4.3,0.7-9.7,0.9-16.2c0.2-6.2-0.1-13.2-1.1-20.6
							c-0.2-1.7-0.7-3.2-1.3-4.5c-0.6-1.2-1.3-2.1-2.1-2.8c-0.8-0.7-1.7-1.2-2.7-1.6c-0.8-0.3-1.6-0.4-2.4-0.4c-0.2,0-0.4,0-0.6,0
							c-1.4,0.1-2.7,0.5-4.1,1.1c-1.7,0.9-3.5,1.9-5.1,3.2c-1.7,1.3-3.3,2.7-4.7,4.2c-0.9,1-1.8,1.9-2.6,2.8
							c-0.1,6.2-0.1,12.2-0.1,17.8c0,6,0.3,11.2,1,15.5l0,0.2c0.4,3.6-0.7,6.8-3.2,9c-1.9,1.7-4.2,2.7-6.8,3c-0.5,0.1-1,0.1-1.5,0.1
							c-2,0-4-0.5-5.8-1.4c-3.1-1.6-5-4.6-5.3-8.2l0-0.1l0-0.1c-0.6-20-1.2-40.2-1.8-60c-0.2-3.6,1.2-6.7,4-8.6c1.9-1.3,4.1-2,6.4-2
							c0.2,0,0.3,0,0.5,0c2.1,0,4.1,0.5,5.9,1.4c2.5,1.3,4.2,3.5,4.8,6c1.4-0.9,2.8-1.7,4.3-2.4c4.7-2.3,9.6-3.5,14.5-3.5
							c0.6,0,1.1,0,1.7,0c7,0.1,13.1,2.3,18.1,6.3c1.6,1.3,3.1,2.8,4.4,4.4c2.5-2.3,5.3-4.2,8.2-5.6c3-1.4,6.1-2.4,9.2-2.8
							c2.2-0.3,4.2-0.5,6.2-0.5c0.8,0,1.5,0,2.2,0.1l0.2,0c7.8,0.7,14.1,3.3,18.8,7.6c4.4,4.2,7.7,9.8,9.7,16.6
							c1.8,6.3,2.7,13.7,2.8,22.1c0,7.9-0.3,16.8-1.1,26.3c-0.3,3.6-2,6.5-4.9,8.2C436.2,357.6,434,358.2,431.7,358.2
							C431.7,358.2,431.7,358.2,431.7,358.2z"/>
					</g>
					<g>
						<path class="st1" d="M451.7,284.4c-0.5,0-1,0-1.5-0.1c-2.5-0.4-4.7-1.4-6.4-3c-1.8-1.7-3-3.9-3.5-6.4c-0.3-1.9-0.3-5.7,3.6-9
							c3.2-2.9,6.5-5.8,9.8-8.7c2.4-2.2,5.2-3.4,8.1-3.4c0.2,0,0.4,0,0.6,0c2.9,0.2,5.5,1.3,7.4,3.2c1.8,1.9,2.9,4.3,3.1,7
							c0.2,2.2-0.3,5.4-3.4,8.5l-0.2,0.2l-0.2,0.2c-3.5,3-7,6-10.5,9l-0.1,0.1C456.4,283.5,454.1,284.4,451.7,284.4L451.7,284.4z"/>
					</g>
					<g>
						<path class="st1" d="M451.6,359.9c-2.5,0-4.8-0.7-6.8-2c-2.9-1.8-4.5-4.8-4.6-8.4l0-0.2l0-0.2c0.9-21.7,1.9-43.4,2.8-65.1
							c0.1-3.7,2-6.7,5.2-8.3c1.6-0.8,3.3-1.1,5.1-1.1c0.6,0,1.2,0,1.9,0.1c2.2,0.3,4.2,1,5.9,2.2c2.8,1.8,4.4,4.6,4.4,7.6
							c0,1.7,0,4.1-0.2,7.3c-0.1,3.1-0.3,6.6-0.5,10.5c-0.2,3.9-0.4,8-0.6,12.3c-0.2,4.3-0.4,8.6-0.6,12.8
							c-0.2,4.1-0.3,8.1-0.3,11.8c0,3.7,0,6.9,0,9.6c0.1,3.7-1.4,6.8-4.2,8.7c-2.1,1.5-4.4,2.2-7,2.3
							C451.8,359.9,451.7,359.9,451.6,359.9z"/>
					</g>
					<g>
						<path class="st1" d="M109.4,268.3c-2.8,0-5.5-0.5-8.1-1.6c-5.5-2.1-9-6.6-10-12.7l-0.1-0.6c-3.4-35.9-7.3-77.5-11.1-118.9
							c-0.1,0.2-0.2,0.5-0.4,0.7c-1.7,3.2-4.3,8.1-10.9,8.6c-0.7,0.1-1.4,0.1-2,0.1c-3.6,0-7.1-0.8-10.3-2.5
							c-1.3-0.7-2.5-1.4-3.6-2.3c-2.2-1.7-4-3.8-5.4-6.3c-3-5.1-2.9-10.8,0-16.1l0.3-0.5l0.1-0.1c9.8-15.2,19.7-30.4,29.6-45.7
							l0.2-0.4l0.3-0.3c0.7-0.8,2.5-2.8,4.3-3.9c3.4-2.1,7.2-3.2,11.4-3.4c0.4,0,0.9,0,1.3,0c3.5,0,6.9,0.7,10,2
							c5.2,2.2,8.6,6.4,9.2,11.5c0.7,5.4,1.3,11.1,1.8,17.3c0.7,8.6,1.5,17.8,2.3,29c0.8,10.3,1.7,21.5,2.8,35.1l0.4,5.3
							c0.9,10.3,1.7,20.7,2.6,31c0.9,10.8,1.8,21.3,3,31.7c0.9,8.2,1.8,15.2,2.9,21.6c0.9,5.8-0.9,11.1-5.1,15.1
							c-3.2,3-7,5-11.2,5.8C112.2,268.1,110.8,268.3,109.4,268.3z"/>
					</g>
					<g>
						<path class="st1" d="M303.9,235.8c-9-0.1-18.4-0.3-29-0.7c-3.9-0.1-7.8-0.3-11.7-0.4c-5.7-0.2-11.3-0.4-17-0.6
							c-8.6-0.3-17.5-0.4-26.3-0.5l-1,0c-5.2,0-10.7,0.3-15.9,0.5l-0.1,0c-1.5,0.1-3.1,0.1-4.5,0.2c-0.2,0-0.4,0-0.6,0
							c-0.2,0-0.4,0-0.7,0c-2.3-0.1-4.7-0.8-7-2c-2.8-1.5-5-3.6-6.6-6.3c-1.8-3-2.4-6.6-1.9-10.5c0.5-3.4,2.2-6.8,5.4-10.5
							c4.4-5.2,9-11,13.5-16.6c4.1-5.2,8.3-10.5,12.6-15.7l5.3-6.2c4.7-5.5,9.5-11.3,14.3-17c4.7-5.7,9.3-11.2,13.8-16.9
							c3.4-4.3,6.5-8.6,9.1-12.7c1.3-2.1,3-5,4.9-8.3c1.9-3.5,3.8-7.3,5.7-11.4c1.7-3.9,3.1-7.8,4.1-11.7c0.8-3.3,1.1-6.2,0.8-8.7
							c-0.2-1.5-0.7-2.6-1.8-3.5c-0.2-0.1-1.7-1.4-6.8-1.5l-0.3,0c-1.1,0-3.1,0.1-6.4,0.7c-1.7,0.3-4.7,1.2-9.3,3.9
							c-4.1,2.4-8.5,6.1-13.3,11.2c-6.3,6.7-11.4,14.8-16,22.6c-2.6,4.5-6.8,7.3-11.6,8c-1,0.1-2,0.2-3,0.2c-2.6,0-5.2-0.5-7.6-1.5
							c-3.6-1.5-6.6-4-8.6-7.3c-2.6-4.3-2.8-9.4-0.6-14.1c4.4-9.4,9.9-18,15.8-25c6.5-7.7,12.4-13.4,18.7-18
							c6.7-4.9,13.8-8.6,21.4-11.1c6.7-2.2,13.2-3.4,19.3-3.4c1.2,0,2.4,0,3.6,0.1c8.7,0.7,18.1,2,27.4,7
							c8.5,4.6,14.5,12.5,16.6,21.7c2.1,9,1,19.1-3.2,31c-5.1,14.5-13.4,27.4-21.5,39.1c-9.6,13.8-20.1,27.3-31.1,40.1
							c-4.6,5.3-11.2,13.3-17.1,20.4c4.8,0.1,9.5,0.1,14.4,0.2c6.3,0.1,12.8,0.3,19.3,0.6c6.6,0.3,13.3,0.6,19.9,1.1
							c7.1,0.5,13.2,0.8,18.4,1.1c4.5,0.2,8.4,2.6,11,6.6c2,3.1,3,6.4,2.9,10c-0.1,4-1.6,7.7-4.4,10.7c-2.1,2.3-6,5-12.9,5
							L303.9,235.8z"/>
					</g>
					<g>
						<path class="st1" d="M421.2,263c-2.8,0-5.6-0.1-8.5-0.3c-3.3-0.2-6.7-0.6-10.2-1.2c-1.2-0.2-3.2-0.6-9.2-2.4
							c-4.7-1.4-9.9-3.6-15.5-6.6c-5.6-3-11.3-6.9-17-11.6c-6-5-11.2-11.5-15.2-19.3c-2.3-4.4-2.5-9.2-0.6-13.7
							c1.5-3.3,3.6-6.1,6.5-8.3c3.1-2.4,6.6-3.6,10.4-3.8c0.2,0,0.4,0,0.6,0c4.7,0,8.9,2.2,11.8,6.1c1.9,2.6,4.1,5.4,6.4,8.1
							c2.3,2.7,4.9,5.4,7.8,7.9c2.8,2.4,5.8,4.6,9.1,6.5c2.7,1.6,5.7,2.6,8.9,3.1c4.2,0.6,8.1,1,11.7,1c1.9,0,3.7-0.1,5.4-0.3
							c4.9-0.5,9.4-1.8,13.1-3.8c3.6-1.9,6.8-4.8,9.4-8.4c2.6-3.6,4.5-8.5,5.5-14.4c0.9-5,0.8-9.2-0.1-12.3c-0.9-2.9-2.2-5.2-4-6.8
							c-2.1-1.9-4.7-3.3-7.8-4.3c-3.6-1.2-7.5-2-11.4-2.3c-1.8-0.1-3.5-0.2-5.2-0.2c-2.4,0-4.7,0.1-7.1,0.4c-4.9,0.5-8.5,1-11.2,1.6
							c-1.6,0.3-3.2,0.5-4.6,0.5c-0.5,0-0.9,0-1.4-0.1c-3.9-0.3-7.3-1.9-9.8-4.6c-2.7-3-4.4-6.7-4.8-10.9c-0.4-3.7,0-7.2,1.2-10.6
							c2.6-7,7.6-8.9,10.4-9.4c3.5-0.6,7.5-1.7,11.8-3.2c4.3-1.5,8.6-3.4,12.8-5.5c4.2-2.2,8.4-4.6,12.3-7.4
							c3.7-2.6,6.9-5.3,9.6-8.1c3.5-3.7,5.5-7.2,5.7-10.1c0.2-2.7-0.3-4.5-1.7-6.1c-1.8-2-4.7-3.4-8.6-4.2c-1.4-0.3-2.8-0.4-4.3-0.4
							c-3.5,0-7.3,0.7-11.3,2.1c-5.2,1.8-10.5,4.3-15.6,7.3c-5.8,3.5-8.9,6.2-10.2,7.6c-2.8,2.8-6.3,4.3-10.1,4.3
							c-1.3,0-2.7-0.2-4-0.6c-3.6-1-6.7-3-9.3-5.8c-2.6-2.8-4.2-6.1-5-9.8c-1-5.1,0.5-10.1,4.3-13.7c5-4.8,10.5-9.3,16.4-13.2
							c6.3-4.3,12.7-7.4,18.8-9.3c7.1-2.2,15.7-4.4,25.4-4.4c0.3,0,0.7,0,1,0c8.5,0.1,16.2,1.7,23,4.6c6.9,3,12.7,7.2,17.3,12.5
							c4.7,5.5,7.7,11.7,9.1,18.6c1.3,6.7,0.9,13.9-1.3,21.4c-2.1,7.1-6.1,14.1-12.2,21.4c-2,2.3-4.8,5-8.4,7.9
							c2.3,1,4.3,2.1,5.9,3.2c6.7,4.7,11.9,10.4,15.5,17.2c3.5,6.4,5.6,13.4,6.2,20.7c0.6,7,0.2,13.8-1.2,20.1
							c-4.6,20.8-15.4,36.7-30.5,44.9C447.4,260.2,435.2,263,421.2,263C421.2,263,421.2,263,421.2,263z"/>
					</g>
					<g>
						<path class="st1" d="M150.4,176.9c-2.7,0-5.3-1.1-7.1-3.1c-1.8-2-2.9-4.4-3.4-7.2c-0.4-2.5-0.2-4.9,0.5-7.3
							c1.1-3.5,3.5-6,6.8-6.9c3.1-0.9,6.8-1.8,10.9-2.9l6-1.5c2.6-0.6,3-0.8,3.8-1c0.7-0.2,1.6-0.5,3.8-1.1c2.8-0.8,2.8-0.8,3.2-0.9
							c0.5-0.2,1.3-0.5,3.3-1.2l0.3-0.1c1.3-0.4,2.5-0.6,3.7-0.6c2.4,0,4.8,0.8,6.7,2.2c2.4,1.8,4.1,4.1,5,6.9
							c1,2.8,1.1,5.6,0.3,8.5c-1,3.8-3.7,6.6-7.6,7.7l-0.2,0.1l-32.9,7.9C152.5,176.8,151.5,176.9,150.4,176.9L150.4,176.9z"/>
					</g>
					<g>
						<path class="st1" d="M344.7,175.9c-1,0-2.1-0.2-3.2-0.5l-32.7-7.9l-0.2-0.1c-3.9-1.2-6.6-3.9-7.6-7.7
							c-0.8-2.9-0.7-5.8,0.3-8.5c1-2.8,2.7-5.1,5-6.9c2-1.5,4.3-2.2,6.7-2.2c1.2,0,2.5,0.2,3.7,0.6l0.3,0.1c2.2,0.8,3,1.1,3.6,1.4
							c0.3,0.1,2,0.6,2.6,0.8c2.2,0.6,3.2,0.9,3.8,1.1c0.8,0.3,1.2,0.4,3.8,1l6,1.5c4.1,1,7.8,2,10.9,2.9c3.2,0.9,5.7,3.4,6.8,6.9
							c0.7,2.3,0.9,4.8,0.5,7.3c-0.4,2.8-1.6,5.2-3.4,7.2C349.9,174.8,347.4,175.9,344.7,175.9L344.7,175.9z"/>
					</g>
				</g>
				<g>
					
						<image style="overflow:visible;opacity:0.2;" width="395" height="135" xlink:href="98C0FD88D30FF94E.png"  transform="matrix(1 0 0 1 84.3127 251.539)">
					</image>
					<g>
						<g>
							<g>
								<path class="st2" d="M105.5,289.8c7.3-6.9,15.8-10.8,25.3-11.5c5.5-0.5,10.2,0.1,14.1,1.7c3.9,1.6,7,3.9,9.4,7
									c2.4,3.1,4.1,6.7,5.2,10.9c1.1,4.2,1.6,8.6,1.5,13.3c-0.1,4.5-0.8,8.6-2.3,12.4c-1.4,3.8-3.4,7.1-5.9,10
									c-2.5,2.9-5.4,5.2-8.7,7c-3.3,1.8-6.9,3-10.7,3.6c-3.8,0.6-7.8,0.5-12-0.3c-4.2-0.8-8.4-2.3-12.5-4.7c0,3,0,5.7,0.2,8.2
									c0.2,2.5,0.4,5,0.7,7.5c0.3,2.5,0.6,5,1,7.6c0.3,2.6,0.7,5.4,1,8.5c0.1,1.4-0.3,2.5-1.2,3.3c-0.9,0.8-2,1.3-3.1,1.4
									c-1.2,0.1-2.3-0.1-3.4-0.7c-1.1-0.6-1.7-1.6-1.9-3.2c-0.2-1.6-0.5-4.5-0.9-8.7c-0.3-4.2-0.7-9-1.2-14.6
									c-0.4-5.5-0.9-11.4-1.5-17.7c-0.5-6.3-1.1-12.3-1.6-18.2c-0.5-5.9-1.1-11.3-1.6-16.1c-0.5-4.9-1-8.7-1.5-11.4
									c-0.2-1.4,0.2-2.6,1.1-3.5c1-0.9,2.2-1.5,3.5-1.7c1.4-0.2,2.7,0,3.9,0.5c1.2,0.6,1.9,1.5,2.1,3
									C104.9,285.6,105.2,287.7,105.5,289.8z M151.6,311.6c0.1-2.8-0.1-5.7-0.5-8.6c-0.5-2.9-1.3-5.5-2.6-7.9
									c-1.3-2.4-3-4.3-5.2-5.9c-2.2-1.6-5-2.5-8.4-2.7c-2.4-0.2-5.2,0.1-8.2,0.9c-3,0.7-5.9,1.9-8.7,3.4c-2.8,1.5-5.3,3.4-7.5,5.5
									c-2.2,2.2-3.7,4.6-4.4,7.4c0,3.9,0.2,7.7,0.7,11.5c0.5,3.8,0.9,7.6,1.4,11.5c2.7,2.6,5.6,4.6,8.7,5.9c3.1,1.3,6.3,2,9.5,2.2
									c3.2,0.2,6.2-0.3,9.2-1.2c3-1,5.6-2.4,7.9-4.4c2.3-2,4.2-4.5,5.7-7.4C150.7,318.8,151.5,315.4,151.6,311.6z"/>
								<path class="st2" d="M214.5,342.8c-4.8,2-9.3,2.9-13.6,3c-4.3,0-8.3-0.7-12-2.1c-3.7-1.4-7-3.5-10-6.1c-3-2.6-5.4-5.7-7.4-9
									c-2-3.4-3.4-7-4.3-10.8c-0.9-3.8-1-7.7-0.5-11.6c0.5-3.9,1.5-7.7,3.2-11.4c1.6-3.7,3.9-7,6.8-9.9c2.9-2.9,6.5-5.2,10.7-6.9
									c4.2-1.7,9.3-2.5,15-2.4c4.7,0.1,9,1.1,13,2.9c4,1.8,7.5,4.3,10.4,7.5c2.9,3.2,5.1,7,6.6,11.4c1.5,4.4,2.1,9.2,1.7,14.4
									c-0.2,3.3-0.8,6.5-1.7,9.6c-1,3.2-2.3,6.1-3.9,8.9c-1.6,2.8-3.6,5.2-6,7.4C220.3,339.8,217.6,341.5,214.5,342.8z
									 M176.7,307.4c-0.5,4.2-0.2,8.3,0.9,12c1.1,3.8,2.9,7,5.3,9.6c2.4,2.7,5.5,4.6,9.1,5.9c3.7,1.3,7.8,1.5,12.4,0.8
									c3.1-0.5,5.8-1.4,8.2-2.7c2.4-1.4,4.5-3,6.2-5c1.7-2,3.1-4.3,4.2-6.9c1-2.6,1.7-5.3,2-8.2c0.3-3.4,0.2-6.7-0.6-9.9
									c-0.7-3.2-2-6.1-3.9-8.6c-1.9-2.5-4.3-4.6-7.2-6.3c-2.9-1.6-6.4-2.6-10.4-3c-1.7-0.1-4,0-6.7,0.4c-2.7,0.4-5.4,1.3-8.1,2.8
									c-2.7,1.5-5.1,3.8-7.3,6.8C178.7,298.2,177.3,302.3,176.7,307.4z"/>
								<path class="st2" d="M240.7,278c-0.1-1.4,0.3-2.4,1.2-3c0.9-0.6,2-1,3.2-1c1.2-0.1,2.3,0.2,3.3,0.7c1,0.5,1.6,1.2,1.6,2.1
									c0.4,3.4,0.9,6.8,1.3,10.1c3.6-3.6,7.6-6.6,11.9-8.8c4.3-2.2,8.7-3.2,13.1-3c2.8,0,5.6,0.6,8.4,1.7c2.8,1.1,5.3,2.8,7.5,4.9
									c2.2,2.1,4.1,4.5,5.7,7.4c1.5,2.8,2.5,5.9,2.9,9.3c0.2,1.8-0.2,3.2-1.2,4.2c-1,0.9-2.2,1.5-3.5,1.7c-1.3,0.2-2.5,0-3.7-0.6
									c-1.2-0.6-1.9-1.5-2.1-2.7c-0.4-2.7-1.1-5.2-2.3-7.3c-1.1-2.1-2.5-3.8-4-5.2c-1.5-1.3-3.2-2.3-5-3c-1.8-0.7-3.5-0.9-5.2-0.7
									c-2.1,0.2-4.3,0.8-6.4,1.9c-2.1,1.1-4.1,2.4-6,3.9c-1.9,1.5-3.7,3.1-5.3,4.9c-1.6,1.7-3.1,3.4-4.3,5
									c0.2,4.4,0.5,8.7,0.8,12.9c0.3,4.2,0.6,8.1,0.9,11.7c0.3,3.6,0.5,6.8,0.8,9.7c0.2,2.9,0.5,5.2,0.8,7.1
									c0.2,1.5-0.2,2.7-1.2,3.6c-1,0.9-2.1,1.4-3.4,1.5c-1.3,0.2-2.5,0-3.6-0.6c-1.1-0.6-1.8-1.6-1.9-3
									C243.7,321.3,242.2,299.7,240.7,278z"/>
							</g>
							<path class="st2" d="M331.9,282.3c-0.1-1.4,0.3-2.4,1.2-3c0.9-0.6,2-0.9,3.2-1c1.2,0,2.3,0.2,3.3,0.7c1,0.5,1.5,1.2,1.6,2.2
								c0.4,3.4,0.8,6.8,1.2,10.2c3.7-3.6,7.6-6.5,12-8.6c4.3-2.1,8.7-3.1,13.1-2.8c5.7,0.1,10.5,1.7,14.3,4.9
								c3.9,3.1,6.4,7,7.7,11.5c1.2-2.9,2.8-5.3,4.9-7.3c2.1-2,4.3-3.5,6.8-4.7c2.4-1.1,4.9-1.9,7.5-2.3c2.5-0.4,4.9-0.5,7.1-0.4
								c6.4,0.6,11.4,2.6,15,6c3.6,3.4,6.3,8,7.9,13.8c1.6,5.8,2.5,12.6,2.5,20.4c0,7.8-0.3,16.4-1,25.8c-0.1,1.5-0.7,2.6-1.9,3.3
								c-1.1,0.7-2.3,1-3.6,0.9c-1.3-0.1-2.4-0.5-3.4-1.3c-1-0.8-1.4-2-1.2-3.6c0.8-6.9,1.4-13.7,1.6-20.4c0.3-6.7-0.1-12.7-1-18
								c-1-5.3-2.8-9.6-5.4-12.8c-2.6-3.3-6.4-4.9-11.3-5c-2.2,0-4.4,0.4-6.6,1.3c-2.2,0.9-4.2,2-6.1,3.5c-1.9,1.5-3.4,3.2-4.8,5.2
								c-1.3,2-2.2,4.1-2.6,6.3c-1.2,6.2-2,12.2-2.3,18c-0.3,5.8-0.5,11.7-0.4,17.8c0,1.5-0.5,2.6-1.6,3.3c-1.1,0.7-2.2,1-3.5,1
								c-1.3,0-2.4-0.4-3.4-1.3c-1-0.8-1.5-2-1.4-3.6c0.4-4.4,0.7-9.9,0.9-16.4c0.3-6.6-0.1-13.8-1.1-21.7c-0.3-2.4-1-4.6-2-6.5
								c-1-1.9-2.2-3.5-3.6-4.7c-1.4-1.2-3-2.2-4.8-2.8c-1.8-0.6-3.6-0.8-5.5-0.7c-2.1,0.1-4.3,0.7-6.4,1.8
								c-2.1,1.1-4.2,2.3-6.1,3.8c-1.9,1.5-3.7,3.1-5.4,4.8c-1.7,1.7-3.1,3.4-4.3,4.9c-0.1,7-0.1,13.8-0.1,20.1
								c0,6.4,0.4,11.8,1.1,16.4c0.2,1.5-0.2,2.7-1.2,3.5c-0.9,0.8-2.1,1.3-3.3,1.5c-1.3,0.1-2.5-0.1-3.7-0.7
								c-1.2-0.6-1.8-1.6-1.9-3.1C333.1,322.4,332.5,302.4,331.9,282.3z"/>
							<path class="st2" d="M457.6,277c-1,0.8-2.1,1.2-3.4,1c-1.2-0.2-2.2-0.6-3-1.4c-0.8-0.7-1.3-1.7-1.5-2.8
								c-0.2-1.1,0.3-2.2,1.5-3.2c3.3-2.9,6.5-5.9,9.8-8.8c1.4-1.3,2.7-1.8,4.1-1.8c1.4,0.1,2.4,0.5,3.2,1.4
								c0.8,0.8,1.3,1.9,1.4,3.1c0.1,1.2-0.4,2.4-1.6,3.5C464.6,271,461.1,274,457.6,277z M452.3,284.3c0-1.4,0.6-2.3,1.6-2.8
								c1-0.5,2.2-0.6,3.4-0.5c1.3,0.2,2.4,0.6,3.4,1.2c1,0.7,1.5,1.4,1.5,2.3c0,1.6,0,3.9-0.2,7c-0.1,3.1-0.3,6.5-0.5,10.4
								c-0.2,3.9-0.4,8-0.6,12.4c-0.2,4.4-0.4,8.6-0.6,12.8c-0.2,4.2-0.3,8.2-0.3,12c-0.1,3.8,0,7.1,0,9.8c0,1.5-0.5,2.7-1.6,3.4
								c-1.1,0.7-2.3,1.1-3.6,1.2c-1.3,0-2.6-0.3-3.7-1c-1.1-0.7-1.7-1.8-1.7-3.2C450.5,327.7,451.4,306,452.3,284.3z"/>
						</g>
					</g>
				</g>
				<g>
					
						<image style="overflow:visible;opacity:0.5;" width="91" height="212" xlink:href="98C0FD88D30FF949.png"  transform="matrix(1 0 0 1 45.3127 60.539)">
					</image>
					<g>
						<path class="st3" d="M123.9,226.1c-1.1-10.4-2.1-21-3-31.8c-0.9-10.3-1.7-20.7-2.6-31l-0.4-5.3c-1.1-13.6-2-24.8-2.8-35.2
							c-0.8-11.2-1.6-20.4-2.3-29c-0.5-6.1-1.1-11.7-1.8-17.1c-0.2-1.6-1.2-4.7-5.4-6.5c-2.6-1.1-5.5-1.6-8.6-1.5
							c-3.1,0.1-6,1-8.4,2.5c-1.2,0.7-2.1,1.6-2.7,2.6l-0.1,0c-9.9,15.3-19.8,30.5-29.6,45.7l-0.1,0.2c-1.9,3.4-1.9,6.8-0.1,9.9
							c1,1.8,2.3,3.3,3.9,4.5c0.8,0.6,1.7,1.2,2.6,1.7c2.7,1.4,5.8,2,8.9,1.7c3.7-0.3,4.7-3.2,6.6-6.5c2.4-4.4,6.5-13.2,9.6-18.3
							c4.1,44.9,8.8,95.3,13.1,140.1l0,0.2c0.6,3.8,2.7,6.5,6.1,7.8c1.9,0.7,3.8,1.1,5.8,1.1c1,0,2-0.1,3.1-0.3c3-0.6,5.8-2,8.1-4.2
							c2.7-2.5,3.8-5.8,3.2-9.5C125.8,241.5,124.8,234.4,123.9,226.1z"/>
					</g>
				</g>
				<g>
					
						<image style="overflow:visible;opacity:0.5;" width="146" height="201" xlink:href="98C0FD88D30FF94B.png"  transform="matrix(1 0 0 1 181.3127 38.539)">
					</image>
					<g>
						<path class="st4" d="M310.3,209.8c-5.3-0.3-11.4-0.7-18.5-1.1c-6.6-0.4-13.2-0.8-19.8-1c-6.4-0.3-12.9-0.5-19.2-0.6
							c-5.6-0.1-11-0.2-16.5-0.3c-4.3,0-8,0-11.2,0.1c6.4-7.8,18.5-22.5,25.7-30.9c10.9-12.7,21.2-26,30.7-39.6
							c7.9-11.3,15.9-23.7,20.8-37.6c3.8-10.7,4.8-19.7,3-27.5c-1.7-7.5-6.6-13.9-13.5-17.6c-8.3-4.5-16.9-5.7-24.9-6.3
							c-6.3-0.5-13.2,0.5-20.5,2.9c-6.9,2.3-13.5,5.7-19.6,10.2c-5.9,4.3-11.5,9.7-17.6,17c-5.6,6.6-10.7,14.8-14.9,23.6
							c-1.3,2.8-1.2,5.6,0.3,8.1c1.3,2.2,3.2,3.8,5.6,4.7c2.3,0.9,4.8,1.2,7.3,0.9c2.9-0.4,5.4-2.1,7-4.9
							c4.8-8.1,10.1-16.6,16.9-23.7c5.2-5.5,10.1-9.6,14.7-12.3c4.4-2.6,8.2-4.1,11.4-4.7c3.3-0.6,6-0.8,8-0.8
							c5.1,0.1,8.8,1.2,10.9,3.1c2.2,2,3.4,4.4,3.8,7.4c0.4,3.3,0.1,7-0.9,11c-1.1,4.2-2.6,8.5-4.5,12.7c-1.9,4.2-3.9,8.2-5.9,11.9
							c-1.9,3.5-3.7,6.5-5.1,8.7c-2.8,4.3-5.9,8.8-9.5,13.2c-4.5,5.7-9.2,11.3-13.9,17c-4.7,5.7-9.6,11.4-14.3,17
							c-1.8,2.1-3.5,4.2-5.3,6.2c-4.2,5-8.5,10.4-12.5,15.5c-4.5,5.7-9.1,11.5-13.6,16.8c-2.4,2.8-3.7,5.1-4,7.3
							c-0.4,2.4,0,4.6,1.1,6.4c1,1.7,2.4,3,4.1,3.9c1.5,0.8,3,1.3,4.4,1.3c0.2,0,0.5,0,0.7,0c1.5-0.1,3.1-0.1,4.6-0.2
							c5.7-0.3,11.5-0.5,17.2-0.5c8.9,0.1,17.7,0.2,26.4,0.5c5.7,0.2,11.3,0.4,17,0.6c3.9,0.1,7.8,0.3,11.7,0.4
							c10.5,0.4,20,0.6,28.9,0.7c3.8,0,6.6-1,8.5-3c1.8-1.9,2.7-4.1,2.7-6.6c0-2.3-0.6-4.5-1.9-6.5
							C314.5,210.6,312.1,209.9,310.3,209.8z"/>
					</g>
				</g>
				<g>
					
						<image style="overflow:visible;opacity:0.5;" width="152" height="208" xlink:href="98C0FD88D30FF948.png"  transform="matrix(1 0 0 1 343.3127 59.539)">
					</image>
					<g>
						<path class="st5" d="M486,190.2c-0.6-6.4-2.4-12.6-5.5-18.2c-3.2-5.8-7.7-10.9-13.6-15c-3.9-2.7-10.6-4.9-15.7-6.4
							c5.4-3.6,13.2-9.2,17.1-13.9c5.6-6.7,9.2-12.9,11-19.1c1.9-6.5,2.3-12.7,1.2-18.5c-1.1-5.8-3.7-11.1-7.7-15.7
							c-3.9-4.6-9-8.2-15-10.8c-6-2.6-13-4-20.6-4.1c-9.3-0.2-17.6,2-24.5,4.1c-5.5,1.7-11.3,4.5-17.1,8.5
							c-5.6,3.8-10.8,8-15.6,12.6c-2.2,2.1-3.1,4.9-2.5,7.9c0.5,2.5,1.7,4.8,3.4,6.8c1.8,2,3.9,3.3,6.3,4c2.9,0.8,5.8,0.1,7.9-2.1
							c1.9-1.9,5.3-4.9,11.4-8.5c5.5-3.3,11.1-6,16.8-7.9c6.9-2.4,13.3-3,18.9-1.9c5.3,1.1,9.4,3.2,12.1,6.2
							c2.6,2.9,3.7,6.5,3.3,10.9c-0.4,4.4-2.9,9.1-7.4,13.9c-2.9,3.1-6.5,6.1-10.6,9c-4.1,2.9-8.5,5.5-13,7.8
							c-4.5,2.3-9.1,4.3-13.6,5.9c-4.7,1.6-9,2.8-12.8,3.5c-1.8,0.3-4.2,1.5-5.6,5.3c-0.9,2.4-1.2,5-0.9,7.7
							c0.3,2.8,1.4,5.3,3.3,7.4c1.4,1.5,3.2,2.4,5.6,2.6c1.3,0.1,2.7,0,4.2-0.3c3-0.6,6.7-1.2,11.8-1.7c4.4-0.5,8.8-0.5,13.3-0.2
							l0.1,0c4.4,0.3,8.8,1.2,12.9,2.5c3.9,1.3,7.3,3.2,10,5.7c2.6,2.4,4.6,5.6,5.8,9.6c1.2,4.1,1.3,9.2,0.3,15.2
							c-1.2,6.9-3.4,12.6-6.6,17c-3.2,4.4-7.1,7.8-11.5,10.2c-4.5,2.4-9.7,3.9-15.5,4.5c-5.6,0.6-11.9,0.3-18.8-0.8
							c-4-0.6-7.7-1.9-11-3.9c-3.6-2.1-7-4.5-10.1-7.2c-3.1-2.7-6-5.6-8.5-8.5c-2.4-2.9-4.7-5.7-6.7-8.5c-1.7-2.4-4.2-3.6-7.1-3.5
							c-2.5,0.1-4.7,0.9-6.8,2.5c-2,1.5-3.5,3.5-4.5,5.8c-1.2,2.7-1.1,5.5,0.4,8.2c3.7,7,8.3,12.9,13.7,17.4
							c5.3,4.5,10.7,8.1,15.9,10.9c5.2,2.8,10.1,4.9,14.3,6.2c5.7,1.7,7.5,2.1,8.4,2.2c3.3,0.5,6.6,0.9,9.7,1.1
							c16.4,1.2,30.3-1.2,41.4-7.2c13.4-7.3,23.1-21.8,27.3-40.7C486.2,202.8,486.6,196.6,486,190.2z"/>
					</g>
				</g>
				<path class="st2" d="M188.3,150.4c-1.4-1-3-1.2-4.9-0.7c-5,1.8-1.8,0.9-6.9,2.3c-5.1,1.4-3.1,1-7.8,2.2c-4.7,1.2-1.8,0.4-6,1.5
					c-4.2,1-7.8,2-10.8,2.8c-1.1,0.3-1.9,1.2-2.4,2.6c-0.4,1.5-0.5,3-0.3,4.5c0.2,1.6,0.8,2.9,1.8,3.9c1,1.1,2.3,1.3,4,0.8l32.9-7.9
					c1.8-0.5,2.9-1.7,3.3-3.3c0.4-1.7,0.4-3.3-0.2-4.9C190.7,152.7,189.7,151.4,188.3,150.4z"/>
				<path class="st2" d="M352.1,164.6c0.2-1.6,0.1-3.1-0.3-4.5c-0.4-1.5-1.2-2.3-2.4-2.6c-3-0.8-6.6-1.8-10.8-2.8
					c-4.2-1-1.2-0.3-6-1.5c-4.7-1.2-2.7-0.7-7.8-2.2c-5.1-1.4-1.6-0.5-6.6-2.3c-1.9-0.6-3.5-0.3-4.9,0.7c-1.4,1-2.3,2.3-2.9,3.9
					c-0.5,1.6-0.6,3.2-0.2,4.9c0.4,1.7,1.6,2.8,3.3,3.3l32.6,7.9c1.7,0.5,3,0.2,4-0.8C351.2,167.4,351.8,166.1,352.1,164.6z"/>
			</g>
		</g>
	</g>
	<g>
		<g>
			<g>
				<path class="st6" d="M104.1,235.3c0,5-0.9,11.9,1.7,16.4c1.6,2.8,5.8,2.4,8.5,2.4c1.9,0,1.9-3,0-3c-2.5,0-5.6,0.6-6.5-2.3
					c-1.2-4.1-0.7-9.2-0.7-13.5C107.1,233.3,104.1,233.3,104.1,235.3L104.1,235.3z"/>
			</g>
		</g>
		<g>
			<g>
				<path class="st6" d="M97.3,75.7c8.6-0.7,7.8,10.2,7.9,16.2c0,1.9,3,1.9,3,0c0-7.7-0.1-20.1-10.9-19.2
					C95.4,72.8,95.4,75.8,97.3,75.7L97.3,75.7z"/>
			</g>
		</g>
		<g>
			<g>
				<path class="st6" d="M60.9,124.5c1.1,5,7.1,7.1,11.5,5.6c1.8-0.6,1-3.5-0.8-2.9c-3,1-7.1,0-7.9-3.5
					C63.4,121.8,60.5,122.6,60.9,124.5L60.9,124.5z"/>
			</g>
		</g>
	</g>
	<g class="st7">
		<g>
			<g>
				<path class="st8" d="M199.5,97.7c-4.6,3.6-2.4,13.8,4.1,13.4c1.9-0.1,1.9-3.1,0-3c-3.9,0.3-4.5-6.3-2-8.3
					C203.2,98.6,201,96.5,199.5,97.7L199.5,97.7z"/>
			</g>
		</g>
		<g>
			<g>
				<path class="st8" d="M278.2,69.7c7.7,4.3,6.5,20.3,2,26.5c-1.1,1.6,1.5,3.1,2.6,1.5c5.5-7.6,6.2-25.5-3.1-30.6
					C278,66.2,276.5,68.8,278.2,69.7L278.2,69.7z"/>
			</g>
		</g>
		<g>
			<g>
				<path class="st8" d="M195.3,215.4c0.1,2.5,0.3,5.5,2.5,7.2c2.2,1.7,5.4,1.6,8.1,1.7c1.9,0,1.9-3,0-3c-1.9,0-4.1,0.1-5.8-0.7
					c-1.8-0.9-1.7-3.5-1.8-5.1C198.3,213.5,195.3,213.5,195.3,215.4L195.3,215.4z"/>
			</g>
		</g>
		<g>
			<g>
				<path class="st8" d="M307.1,215c1.7-0.1,2.8,1.1,3.4,2.6c0.5,1.1,0.9,3.3-0.2,4.1c-1.5,1.1,0,3.8,1.5,2.6
					c4.6-3.5,1.2-12.9-4.7-12.3C305.2,212.2,305.2,215.2,307.1,215L307.1,215z"/>
			</g>
		</g>
	</g>
	<g class="st9">
		<g>
			<g>
				<path class="st10" d="M359.9,210c0,0.1,0.9-1.2,1-1.3c0.7-0.8,1.9-1.2,2.9-1.5c2.8-0.9,4.9,0.8,6,3.2c0.8,1.8,3.4,0.2,2.6-1.5
					c-1.7-3.8-5.3-5.6-9.4-4.6c-2.6,0.6-6.7,3.4-6,6.6C357.4,212.7,360.3,211.9,359.9,210L359.9,210z"/>
			</g>
		</g>
		<g>
			<g>
				<path class="st10" d="M399.2,157.3c-0.8,3.3-0.8,6.8,1.7,9.3c2.5,2.5,6.5,2.6,9.7,2.2c1.9-0.2,1.9-3.2,0-3
					c-2.4,0.2-5.3,0.4-7.3-1.1c-2-1.6-1.7-4.4-1.2-6.6C402.5,156.2,399.6,155.4,399.2,157.3L399.2,157.3z"/>
			</g>
		</g>
		<g>
			<g>
				<path class="st10" d="M467.6,167.4c5.9,6.4,8.1,14.1,8.9,22.6c0.2,1.9,3.2,1.9,3,0c-0.9-9.3-3.3-17.7-9.8-24.7
					C468.4,163.9,466.3,166,467.6,167.4L467.6,167.4z"/>
			</g>
		</g>
		<g>
			<g>
				<path class="st10" d="M381.8,101.4c1.3,7.8,10.4,8.1,15.5,3.7c1.5-1.3-0.7-3.4-2.1-2.1c-3.5,3.1-9.6,3-10.5-2.3
					C384.4,98.7,381.5,99.5,381.8,101.4L381.8,101.4z"/>
			</g>
		</g>
		<g>
			<g>
				<path class="st10" d="M457.2,97.4c3.8,3.4,3.5,8.6,2.6,13.2c-0.4,1.9,2.5,2.7,2.9,0.8c1-5.6,1.3-12-3.4-16.1
					C457.9,94,455.8,96.1,457.2,97.4L457.2,97.4z"/>
			</g>
		</g>
	</g>
	<g>
		<g>
			<g>
				<path class="st11" d="M152.4,162.6c-0.3,2.7,2.4,5.9,5.2,4.2c0.8-0.5,0.1-1.8-0.8-1.3c-1.8,1.1-3.1-1.4-2.9-2.9
					C154.1,161.6,152.6,161.6,152.4,162.6L152.4,162.6z"/>
			</g>
		</g>
		<g>
			<g>
				<path class="st11" d="M184.4,153.1c1.7-0.5,3.1,1.6,3.4,3.1c0.1,1,1.6,0.5,1.4-0.4c-0.4-2.3-2.7-4.8-5.2-4.1
					C183,151.9,183.4,153.3,184.4,153.1L184.4,153.1z"/>
			</g>
		</g>
		<g>
			<g>
				<path class="st11" d="M317.6,151.4c-1.7-0.6-3.5,0.3-4,2c-0.3,0.9,1.1,1.3,1.4,0.4c0.3-0.9,1.3-1.2,2.2-0.9
					C318.1,153.2,318.5,151.7,317.6,151.4L317.6,151.4z"/>
			</g>
		</g>
		<g>
			<g>
				<path class="st11" d="M342.8,166.6c2.6,1.6,5.2,0.7,6.5-1.9c0.4-0.9-0.8-1.6-1.3-0.8c-1,1.9-2.6,2.6-4.5,1.4
					C342.7,164.8,342,166.1,342.8,166.6L342.8,166.6z"/>
			</g>
		</g>
	</g>
</g>
</svg>
